<!DOCTYPE svg PUBLIC "-//W3C//DTD SVG 1.1//EN" "http://www.w3.org/Graphics/SVG/1.1/DTD/svg11.dtd">
<svg xmlns="http://www.w3.org/2000/svg" xmlns:xlink="http://www.w3.org/1999/xlink" xmlns:ev="http://www.w3.org/2001/xml-events" version="1.1" baseProfile="full">
<defs>
<symbol id="1f">
<polygon points="10.0, 0, 17.5, 2.5, 20, 25, 0, 25, 2.5, 2.5" fill="white" stroke="black" stroke-width="1" />
<rect x="16.8" y="22" width="1.2000000000000002" height="1.2000000000000002" fill="#7e7e7e" stroke="#7e7e7e" stroke-width="0.3" /><rect x="2.0" y="22" width="1.2000000000000002" height="1.2000000000000002" fill="black" stroke="black" stroke-width="0.3" /><rect x="4.5" y="22" width="1.2000000000000002" height="1.2000000000000002" fill="black" stroke="black" stroke-width="0.3" /><line x1="10.0" y1="8.5" x2="10.0" y2="18.5" fill="black" stroke="black" stroke-width="0.5" transform="rotate(0 10.0 13.5)" />
<line x1="10.0" y1="8.5" x2="10.0" y2="18.5" fill="black" stroke="black" stroke-width="0.5" transform="rotate(45 10.0 13.5)" />
<line x1="10.0" y1="8.5" x2="10.0" y2="18.5" fill="black" stroke="black" stroke-width="0.5" transform="rotate(90 10.0 13.5)" />
<line x1="10.0" y1="8.5" x2="10.0" y2="18.5" fill="black" stroke="black" stroke-width="0.5" transform="rotate(135 10.0 13.5)" />
<circle cx="10.0" cy="8.5" r="1.5" fill="black" stroke="black" stroke-width="0.5" transform="rotate(0 10.0 13.5)" />
<circle cx="10.0" cy="8.5" r="1.5" fill="white" stroke="black" stroke-width="0.5" transform="rotate(45 10.0 13.5)" />
<circle cx="10.0" cy="8.5" r="1.5" fill="white" stroke="black" stroke-width="0.5" transform="rotate(180 10.0 13.5)" />
<circle cx="10.0" cy="8.5" r="1.5" fill="white" stroke="black" stroke-width="0.5" transform="rotate(315 10.0 13.5)" />
</symbol>
<symbol id="1b">
<polygon points="10.0, 0, 17.5, 2.5, 20, 25, 0, 25, 2.5, 2.5" fill="white" stroke="black" stroke-width="1" />
<circle cx="10.0" cy="13.5" r="4" fill="white" stroke="black" stroke-width="1"  />
</symbol>
</defs>
</svg>
